<svg width="85" height="85" viewBox="0 0 85 85" fill="none" xmlns="http://www.w3.org/2000/svg">
<path d="M14.0985 64.1086C9.45049 65.0386 6.23768 59.5826 9.30553 55.9692L23.2761 39.5139C24.2458 38.3717 24.6523 36.8549 24.3835 35.3809L20.4427 13.7629C19.6003 9.14184 25.0175 6.0142 28.5982 9.05425L45.3495 23.2762C46.4917 24.2459 48.0085 24.6523 49.4825 24.3836L70.476 20.5566C75.1652 19.7018 78.2779 25.2694 75.0937 28.8163L61.1558 44.3417C60.1113 45.5052 59.6712 47.0903 59.9662 48.6257L64.3325 71.3478C65.214 75.9351 59.8829 79.1187 56.2624 76.167L37.9047 61.2011C36.7471 60.2574 35.2284 59.8805 33.764 60.1735L14.0985 64.1086Z" fill="#1EB0E5"/>
</svg>
