<svg width="96" height="99" viewBox="0 0 96 99" fill="none" xmlns="http://www.w3.org/2000/svg">
<path d="M8.73586 79.7423C2.22933 81.0442 -2.26815 73.4066 2.0264 68.3482L21.5832 45.3133C22.9407 43.7144 23.5096 41.591 23.1334 39.5276L17.6168 9.26552C16.4375 2.79676 24.0209 -1.58148 29.0334 2.67415L52.4828 22.5828C54.0817 23.9403 56.205 24.5092 58.2684 24.1331L87.6562 18.7757C94.2204 17.5791 98.5777 25.373 94.1203 30.3381L74.6093 52.0715C73.1472 53.7002 72.531 55.9191 72.944 58.0685L79.0562 89.8761C80.2901 96.2977 72.8274 100.754 67.7592 96.6224L42.0611 75.6722C40.4407 74.3512 38.3146 73.8236 36.2647 74.2338L8.73586 79.7423Z" fill="#1EB0E5"/>
</svg>
